%TF.GenerationSoftware,KiCad,Pcbnew,9.0.7*%
%TF.CreationDate,2026-02-20T23:46:02+05:30*%
%TF.ProjectId,heart-board,68656172-742d-4626-9f61-72642e6b6963,rev?*%
%TF.SameCoordinates,Original*%
%TF.FileFunction,Copper,L1,Top*%
%TF.FilePolarity,Positive*%
%FSLAX46Y46*%
G04 Gerber Fmt 4.6, Leading zero omitted, Abs format (unit mm)*
G04 Created by KiCad (PCBNEW 9.0.7) date 2026-02-20 23:46:02*
%MOMM*%
%LPD*%
G01*
G04 APERTURE LIST*
G04 Aperture macros list*
%AMRoundRect*
0 Rectangle with rounded corners*
0 $1 Rounding radius*
0 $2 $3 $4 $5 $6 $7 $8 $9 X,Y pos of 4 corners*
0 Add a 4 corners polygon primitive as box body*
4,1,4,$2,$3,$4,$5,$6,$7,$8,$9,$2,$3,0*
0 Add four circle primitives for the rounded corners*
1,1,$1+$1,$2,$3*
1,1,$1+$1,$4,$5*
1,1,$1+$1,$6,$7*
1,1,$1+$1,$8,$9*
0 Add four rect primitives between the rounded corners*
20,1,$1+$1,$2,$3,$4,$5,0*
20,1,$1+$1,$4,$5,$6,$7,0*
20,1,$1+$1,$6,$7,$8,$9,0*
20,1,$1+$1,$8,$9,$2,$3,0*%
G04 Aperture macros list end*
%TA.AperFunction,ComponentPad*%
%ADD10R,1.800000X1.800000*%
%TD*%
%TA.AperFunction,ComponentPad*%
%ADD11C,1.800000*%
%TD*%
%TA.AperFunction,ComponentPad*%
%ADD12R,1.700000X1.700000*%
%TD*%
%TA.AperFunction,ComponentPad*%
%ADD13C,1.700000*%
%TD*%
%TA.AperFunction,ComponentPad*%
%ADD14RoundRect,0.250000X-0.550000X-0.550000X0.550000X-0.550000X0.550000X0.550000X-0.550000X0.550000X0*%
%TD*%
%TA.AperFunction,ComponentPad*%
%ADD15C,1.600000*%
%TD*%
%TA.AperFunction,Conductor*%
%ADD16C,0.200000*%
%TD*%
G04 APERTURE END LIST*
D10*
%TO.P,D13,1,K*%
%TO.N,GND*%
X203960000Y-56500000D03*
D11*
%TO.P,D13,2,A*%
%TO.N,Net-(D1-A)*%
X206500000Y-56500000D03*
%TD*%
D12*
%TO.P,BT1,1,+*%
%TO.N,+9V*%
X177000000Y-83960000D03*
D13*
%TO.P,BT1,2,-*%
%TO.N,GND*%
X177000000Y-86500000D03*
%TD*%
D14*
%TO.P,C1,1*%
%TO.N,GND*%
X172500000Y-70000000D03*
D15*
%TO.P,C1,2*%
X174500000Y-70000000D03*
%TD*%
D11*
%TO.P,D14,2,A*%
%TO.N,Net-(D1-A)*%
X195500000Y-61000000D03*
D10*
%TO.P,D14,1,K*%
%TO.N,GND*%
X192960000Y-61000000D03*
%TD*%
D14*
%TO.P,U1,1,GND*%
%TO.N,GND*%
X181880000Y-78380000D03*
D15*
%TO.P,U1,2,TRIG*%
X181880000Y-80920000D03*
%TO.P,U1,3,OUT*%
%TO.N,Net-(U1-OUT)*%
X181880000Y-83460000D03*
%TO.P,U1,4,~{RST}*%
%TO.N,+9V*%
X181880000Y-86000000D03*
%TO.P,U1,5,CONT*%
%TO.N,unconnected-(U1-CONT-Pad5)*%
X189500000Y-86000000D03*
%TO.P,U1,6,THRES*%
%TO.N,GND*%
X189500000Y-83460000D03*
%TO.P,U1,7,DISCH*%
%TO.N,Net-(U1-DISCH)*%
X189500000Y-80920000D03*
%TO.P,U1,8,VCC*%
%TO.N,+9V*%
X189500000Y-78380000D03*
%TD*%
%TO.P,R3,1*%
%TO.N,Net-(D1-A)*%
X166880000Y-78000000D03*
%TO.P,R3,2*%
%TO.N,Net-(U1-OUT)*%
X174500000Y-78000000D03*
%TD*%
%TO.P,R2,1*%
%TO.N,Net-(U1-DISCH)*%
X194000000Y-80380000D03*
%TO.P,R2,2*%
%TO.N,GND*%
X194000000Y-88000000D03*
%TD*%
%TO.P,R1,1*%
%TO.N,+9V*%
X194000000Y-69380000D03*
%TO.P,R1,2*%
%TO.N,Net-(U1-DISCH)*%
X194000000Y-77000000D03*
%TD*%
D10*
%TO.P,D12,1,K*%
%TO.N,GND*%
X213460000Y-64000000D03*
D11*
%TO.P,D12,2,A*%
%TO.N,Net-(D1-A)*%
X216000000Y-64000000D03*
%TD*%
D10*
%TO.P,D11,1,K*%
%TO.N,GND*%
X211460000Y-76500000D03*
D11*
%TO.P,D11,2,A*%
%TO.N,Net-(D1-A)*%
X214000000Y-76500000D03*
%TD*%
D10*
%TO.P,D10,1,K*%
%TO.N,GND*%
X201460000Y-86500000D03*
D11*
%TO.P,D10,2,A*%
%TO.N,Net-(D1-A)*%
X204000000Y-86500000D03*
%TD*%
D10*
%TO.P,D9,1,K*%
%TO.N,GND*%
X191960000Y-96000000D03*
D11*
%TO.P,D9,2,A*%
%TO.N,Net-(D1-A)*%
X194500000Y-96000000D03*
%TD*%
D10*
%TO.P,D7,1,K*%
%TO.N,GND*%
X172960000Y-95500000D03*
D11*
%TO.P,D7,2,A*%
%TO.N,Net-(D1-A)*%
X175500000Y-95500000D03*
%TD*%
D10*
%TO.P,D6,1,K*%
%TO.N,GND*%
X165460000Y-87000000D03*
D11*
%TO.P,D6,2,A*%
%TO.N,Net-(D1-A)*%
X168000000Y-87000000D03*
%TD*%
D10*
%TO.P,D5,1,K*%
%TO.N,GND*%
X156960000Y-77500000D03*
D11*
%TO.P,D5,2,A*%
%TO.N,Net-(D1-A)*%
X159500000Y-77500000D03*
%TD*%
D10*
%TO.P,D4,1,K*%
%TO.N,GND*%
X154225000Y-64500000D03*
D11*
%TO.P,D4,2,A*%
%TO.N,Net-(D1-A)*%
X156765000Y-64500000D03*
%TD*%
D10*
%TO.P,D3,1,K*%
%TO.N,GND*%
X163960000Y-56000000D03*
D11*
%TO.P,D3,2,A*%
%TO.N,Net-(D1-A)*%
X166500000Y-56000000D03*
%TD*%
D10*
%TO.P,D2,1,K*%
%TO.N,GND*%
X174960000Y-59000000D03*
D11*
%TO.P,D2,2,A*%
%TO.N,Net-(D1-A)*%
X177500000Y-59000000D03*
%TD*%
%TO.P,D1,2,A*%
%TO.N,Net-(D1-A)*%
X186500000Y-67500000D03*
D10*
%TO.P,D1,1,K*%
%TO.N,GND*%
X183960000Y-67500000D03*
%TD*%
%TO.P,D8,1,K*%
%TO.N,GND*%
X182460000Y-104500000D03*
D11*
%TO.P,D8,2,A*%
%TO.N,Net-(D1-A)*%
X185000000Y-104500000D03*
%TD*%
D16*
%TO.N,GND*%
X211460000Y-76500000D02*
X201460000Y-86500000D01*
X182460000Y-104500000D02*
X181960000Y-104500000D01*
X181960000Y-104500000D02*
X172960000Y-95500000D01*
%TO.N,Net-(D1-A)*%
X185000000Y-104500000D02*
X186000000Y-104500000D01*
X186000000Y-104500000D02*
X194500000Y-96000000D01*
X216000000Y-64000000D02*
X208500000Y-56500000D01*
X208500000Y-56500000D02*
X206500000Y-56500000D01*
%TO.N,GND*%
X183960000Y-67500000D02*
X182000000Y-67500000D01*
X182000000Y-67500000D02*
X174960000Y-60460000D01*
X174960000Y-60460000D02*
X174960000Y-59000000D01*
X174960000Y-59000000D02*
X175460000Y-59000000D01*
%TO.N,Net-(D1-A)*%
X186500000Y-66000000D02*
X179500000Y-59000000D01*
X179500000Y-59000000D02*
X177500000Y-59000000D01*
X186500000Y-67500000D02*
X186500000Y-66000000D01*
X186500000Y-67500000D02*
X189000000Y-67500000D01*
X189000000Y-67500000D02*
X195500000Y-61000000D01*
%TO.N,GND*%
X183960000Y-67500000D02*
X183960000Y-67158471D01*
%TO.N,Net-(D1-A)*%
X166500000Y-56000000D02*
X174500000Y-56000000D01*
X174500000Y-56000000D02*
X177500000Y-59000000D01*
%TO.N,GND*%
X172500000Y-74500000D02*
X173000000Y-75000000D01*
X172500000Y-70000000D02*
X172500000Y-74500000D01*
X173000000Y-75000000D02*
X175960000Y-75000000D01*
X175960000Y-75000000D02*
X181880000Y-80920000D01*
%TO.N,Net-(D1-A)*%
X206500000Y-56500000D02*
X207000000Y-56000000D01*
X206500000Y-56500000D02*
X202000000Y-61000000D01*
X202000000Y-61000000D02*
X195500000Y-61000000D01*
%TO.N,GND*%
X213460000Y-64000000D02*
X213460000Y-74500000D01*
X213460000Y-74500000D02*
X211460000Y-76500000D01*
X154225000Y-64500000D02*
X162725000Y-56000000D01*
X162725000Y-56000000D02*
X163960000Y-56000000D01*
X156960000Y-77500000D02*
X154225000Y-74765000D01*
X154225000Y-74765000D02*
X154225000Y-64500000D01*
X165460000Y-87000000D02*
X165460000Y-86000000D01*
X165460000Y-86000000D02*
X156960000Y-77500000D01*
X172960000Y-95500000D02*
X172960000Y-94500000D01*
X172960000Y-94500000D02*
X165460000Y-87000000D01*
X201460000Y-86500000D02*
X191960000Y-96000000D01*
X181880000Y-80920000D02*
X181880000Y-78380000D01*
X177000000Y-86500000D02*
X175849000Y-85349000D01*
X181423950Y-84561000D02*
X182336050Y-84561000D01*
X182981000Y-82021000D02*
X181880000Y-80920000D01*
X175849000Y-85349000D02*
X175849000Y-82809000D01*
X175849000Y-82809000D02*
X179671950Y-82809000D01*
X179671950Y-82809000D02*
X181423950Y-84561000D01*
X182336050Y-84561000D02*
X182981000Y-83916050D01*
X182981000Y-83916050D02*
X182981000Y-82021000D01*
%TO.N,+9V*%
X177000000Y-83960000D02*
X182141000Y-89101000D01*
X182141000Y-89101000D02*
X194456050Y-89101000D01*
X194456050Y-89101000D02*
X195101000Y-88456050D01*
X188399000Y-79481000D02*
X189500000Y-78380000D01*
X195101000Y-88456050D02*
X195101000Y-87503950D01*
X195101000Y-87503950D02*
X189618050Y-82021000D01*
X189618050Y-82021000D02*
X189043950Y-82021000D01*
X188399000Y-81376050D02*
X188399000Y-79481000D01*
X189043950Y-82021000D02*
X188399000Y-81376050D01*
%TO.N,GND*%
X194000000Y-88000000D02*
X189500000Y-83500000D01*
X189500000Y-83500000D02*
X189500000Y-83460000D01*
%TO.N,Net-(U1-DISCH)*%
X194000000Y-80380000D02*
X190040000Y-80380000D01*
X190040000Y-80380000D02*
X189500000Y-80920000D01*
%TO.N,GND*%
X174500000Y-70000000D02*
X174500000Y-74500000D01*
X174500000Y-74500000D02*
X180920000Y-80920000D01*
X180920000Y-80920000D02*
X181880000Y-80920000D01*
%TO.N,+9V*%
X189500000Y-78380000D02*
X189500000Y-72000000D01*
X189500000Y-72000000D02*
X192120000Y-69380000D01*
X192120000Y-69380000D02*
X194000000Y-69380000D01*
X181880000Y-86000000D02*
X189500000Y-78380000D01*
%TO.N,Net-(U1-DISCH)*%
X194000000Y-77000000D02*
X194000000Y-80380000D01*
%TO.N,Net-(U1-OUT)*%
X174500000Y-78000000D02*
X176420000Y-78000000D01*
X176420000Y-78000000D02*
X181880000Y-83460000D01*
%TO.N,Net-(D1-A)*%
X177500000Y-59500000D02*
X177500000Y-59000000D01*
X214000000Y-76500000D02*
X216000000Y-74500000D01*
X216000000Y-74500000D02*
X216000000Y-64000000D01*
X204000000Y-86500000D02*
X214000000Y-76500000D01*
X194500000Y-96000000D02*
X204000000Y-86500000D01*
X175500000Y-95500000D02*
X176000000Y-95500000D01*
X176000000Y-95500000D02*
X185000000Y-104500000D01*
X168000000Y-87000000D02*
X168000000Y-88000000D01*
X168000000Y-88000000D02*
X175500000Y-95500000D01*
X166880000Y-78000000D02*
X166500000Y-78380000D01*
X166500000Y-78380000D02*
X166500000Y-85500000D01*
X166500000Y-85500000D02*
X168000000Y-87000000D01*
X159500000Y-77500000D02*
X160000000Y-77500000D01*
X160000000Y-77500000D02*
X160500000Y-78000000D01*
X160500000Y-78000000D02*
X166880000Y-78000000D01*
X156765000Y-64500000D02*
X156765000Y-74765000D01*
X156765000Y-74765000D02*
X159500000Y-77500000D01*
X166500000Y-56000000D02*
X158000000Y-64500000D01*
X158000000Y-64500000D02*
X156765000Y-64500000D01*
%TO.N,GND*%
X181761950Y-84561000D02*
X182336050Y-84561000D01*
X180779000Y-85543950D02*
X181761950Y-84561000D01*
X182322950Y-88000000D02*
X180779000Y-86456050D01*
X180779000Y-86456050D02*
X180779000Y-85543950D01*
X194000000Y-88000000D02*
X182322950Y-88000000D01*
X192960000Y-61000000D02*
X197460000Y-56500000D01*
X197460000Y-56500000D02*
X203960000Y-56500000D01*
%TD*%
M02*
