%TF.GenerationSoftware,KiCad,Pcbnew,9.0.7*%
%TF.CreationDate,2026-02-20T23:46:02+05:30*%
%TF.ProjectId,heart-board,68656172-742d-4626-9f61-72642e6b6963,rev?*%
%TF.SameCoordinates,Original*%
%TF.FileFunction,Legend,Top*%
%TF.FilePolarity,Positive*%
%FSLAX46Y46*%
G04 Gerber Fmt 4.6, Leading zero omitted, Abs format (unit mm)*
G04 Created by KiCad (PCBNEW 9.0.7) date 2026-02-20 23:46:02*
%MOMM*%
%LPD*%
G01*
G04 APERTURE LIST*
%ADD10C,0.150000*%
%ADD11C,0.120000*%
G04 APERTURE END LIST*
D10*
X204015714Y-52994819D02*
X204015714Y-51994819D01*
X204015714Y-51994819D02*
X204253809Y-51994819D01*
X204253809Y-51994819D02*
X204396666Y-52042438D01*
X204396666Y-52042438D02*
X204491904Y-52137676D01*
X204491904Y-52137676D02*
X204539523Y-52232914D01*
X204539523Y-52232914D02*
X204587142Y-52423390D01*
X204587142Y-52423390D02*
X204587142Y-52566247D01*
X204587142Y-52566247D02*
X204539523Y-52756723D01*
X204539523Y-52756723D02*
X204491904Y-52851961D01*
X204491904Y-52851961D02*
X204396666Y-52947200D01*
X204396666Y-52947200D02*
X204253809Y-52994819D01*
X204253809Y-52994819D02*
X204015714Y-52994819D01*
X205539523Y-52994819D02*
X204968095Y-52994819D01*
X205253809Y-52994819D02*
X205253809Y-51994819D01*
X205253809Y-51994819D02*
X205158571Y-52137676D01*
X205158571Y-52137676D02*
X205063333Y-52232914D01*
X205063333Y-52232914D02*
X204968095Y-52280533D01*
X205872857Y-51994819D02*
X206491904Y-51994819D01*
X206491904Y-51994819D02*
X206158571Y-52375771D01*
X206158571Y-52375771D02*
X206301428Y-52375771D01*
X206301428Y-52375771D02*
X206396666Y-52423390D01*
X206396666Y-52423390D02*
X206444285Y-52471009D01*
X206444285Y-52471009D02*
X206491904Y-52566247D01*
X206491904Y-52566247D02*
X206491904Y-52804342D01*
X206491904Y-52804342D02*
X206444285Y-52899580D01*
X206444285Y-52899580D02*
X206396666Y-52947200D01*
X206396666Y-52947200D02*
X206301428Y-52994819D01*
X206301428Y-52994819D02*
X206015714Y-52994819D01*
X206015714Y-52994819D02*
X205920476Y-52947200D01*
X205920476Y-52947200D02*
X205872857Y-52899580D01*
X176214285Y-81511009D02*
X176357142Y-81558628D01*
X176357142Y-81558628D02*
X176404761Y-81606247D01*
X176404761Y-81606247D02*
X176452380Y-81701485D01*
X176452380Y-81701485D02*
X176452380Y-81844342D01*
X176452380Y-81844342D02*
X176404761Y-81939580D01*
X176404761Y-81939580D02*
X176357142Y-81987200D01*
X176357142Y-81987200D02*
X176261904Y-82034819D01*
X176261904Y-82034819D02*
X175880952Y-82034819D01*
X175880952Y-82034819D02*
X175880952Y-81034819D01*
X175880952Y-81034819D02*
X176214285Y-81034819D01*
X176214285Y-81034819D02*
X176309523Y-81082438D01*
X176309523Y-81082438D02*
X176357142Y-81130057D01*
X176357142Y-81130057D02*
X176404761Y-81225295D01*
X176404761Y-81225295D02*
X176404761Y-81320533D01*
X176404761Y-81320533D02*
X176357142Y-81415771D01*
X176357142Y-81415771D02*
X176309523Y-81463390D01*
X176309523Y-81463390D02*
X176214285Y-81511009D01*
X176214285Y-81511009D02*
X175880952Y-81511009D01*
X176738095Y-81034819D02*
X177309523Y-81034819D01*
X177023809Y-82034819D02*
X177023809Y-81034819D01*
X178166666Y-82034819D02*
X177595238Y-82034819D01*
X177880952Y-82034819D02*
X177880952Y-81034819D01*
X177880952Y-81034819D02*
X177785714Y-81177676D01*
X177785714Y-81177676D02*
X177690476Y-81272914D01*
X177690476Y-81272914D02*
X177595238Y-81320533D01*
X173333333Y-66609580D02*
X173285714Y-66657200D01*
X173285714Y-66657200D02*
X173142857Y-66704819D01*
X173142857Y-66704819D02*
X173047619Y-66704819D01*
X173047619Y-66704819D02*
X172904762Y-66657200D01*
X172904762Y-66657200D02*
X172809524Y-66561961D01*
X172809524Y-66561961D02*
X172761905Y-66466723D01*
X172761905Y-66466723D02*
X172714286Y-66276247D01*
X172714286Y-66276247D02*
X172714286Y-66133390D01*
X172714286Y-66133390D02*
X172761905Y-65942914D01*
X172761905Y-65942914D02*
X172809524Y-65847676D01*
X172809524Y-65847676D02*
X172904762Y-65752438D01*
X172904762Y-65752438D02*
X173047619Y-65704819D01*
X173047619Y-65704819D02*
X173142857Y-65704819D01*
X173142857Y-65704819D02*
X173285714Y-65752438D01*
X173285714Y-65752438D02*
X173333333Y-65800057D01*
X174285714Y-66704819D02*
X173714286Y-66704819D01*
X174000000Y-66704819D02*
X174000000Y-65704819D01*
X174000000Y-65704819D02*
X173904762Y-65847676D01*
X173904762Y-65847676D02*
X173809524Y-65942914D01*
X173809524Y-65942914D02*
X173714286Y-65990533D01*
X193015714Y-57494819D02*
X193015714Y-56494819D01*
X193015714Y-56494819D02*
X193253809Y-56494819D01*
X193253809Y-56494819D02*
X193396666Y-56542438D01*
X193396666Y-56542438D02*
X193491904Y-56637676D01*
X193491904Y-56637676D02*
X193539523Y-56732914D01*
X193539523Y-56732914D02*
X193587142Y-56923390D01*
X193587142Y-56923390D02*
X193587142Y-57066247D01*
X193587142Y-57066247D02*
X193539523Y-57256723D01*
X193539523Y-57256723D02*
X193491904Y-57351961D01*
X193491904Y-57351961D02*
X193396666Y-57447200D01*
X193396666Y-57447200D02*
X193253809Y-57494819D01*
X193253809Y-57494819D02*
X193015714Y-57494819D01*
X194539523Y-57494819D02*
X193968095Y-57494819D01*
X194253809Y-57494819D02*
X194253809Y-56494819D01*
X194253809Y-56494819D02*
X194158571Y-56637676D01*
X194158571Y-56637676D02*
X194063333Y-56732914D01*
X194063333Y-56732914D02*
X193968095Y-56780533D01*
X195396666Y-56828152D02*
X195396666Y-57494819D01*
X195158571Y-56447200D02*
X194920476Y-57161485D01*
X194920476Y-57161485D02*
X195539523Y-57161485D01*
X184928095Y-75504819D02*
X184928095Y-76314342D01*
X184928095Y-76314342D02*
X184975714Y-76409580D01*
X184975714Y-76409580D02*
X185023333Y-76457200D01*
X185023333Y-76457200D02*
X185118571Y-76504819D01*
X185118571Y-76504819D02*
X185309047Y-76504819D01*
X185309047Y-76504819D02*
X185404285Y-76457200D01*
X185404285Y-76457200D02*
X185451904Y-76409580D01*
X185451904Y-76409580D02*
X185499523Y-76314342D01*
X185499523Y-76314342D02*
X185499523Y-75504819D01*
X186499523Y-76504819D02*
X185928095Y-76504819D01*
X186213809Y-76504819D02*
X186213809Y-75504819D01*
X186213809Y-75504819D02*
X186118571Y-75647676D01*
X186118571Y-75647676D02*
X186023333Y-75742914D01*
X186023333Y-75742914D02*
X185928095Y-75790533D01*
X170523333Y-76084819D02*
X170190000Y-75608628D01*
X169951905Y-76084819D02*
X169951905Y-75084819D01*
X169951905Y-75084819D02*
X170332857Y-75084819D01*
X170332857Y-75084819D02*
X170428095Y-75132438D01*
X170428095Y-75132438D02*
X170475714Y-75180057D01*
X170475714Y-75180057D02*
X170523333Y-75275295D01*
X170523333Y-75275295D02*
X170523333Y-75418152D01*
X170523333Y-75418152D02*
X170475714Y-75513390D01*
X170475714Y-75513390D02*
X170428095Y-75561009D01*
X170428095Y-75561009D02*
X170332857Y-75608628D01*
X170332857Y-75608628D02*
X169951905Y-75608628D01*
X170856667Y-75084819D02*
X171475714Y-75084819D01*
X171475714Y-75084819D02*
X171142381Y-75465771D01*
X171142381Y-75465771D02*
X171285238Y-75465771D01*
X171285238Y-75465771D02*
X171380476Y-75513390D01*
X171380476Y-75513390D02*
X171428095Y-75561009D01*
X171428095Y-75561009D02*
X171475714Y-75656247D01*
X171475714Y-75656247D02*
X171475714Y-75894342D01*
X171475714Y-75894342D02*
X171428095Y-75989580D01*
X171428095Y-75989580D02*
X171380476Y-76037200D01*
X171380476Y-76037200D02*
X171285238Y-76084819D01*
X171285238Y-76084819D02*
X170999524Y-76084819D01*
X170999524Y-76084819D02*
X170904286Y-76037200D01*
X170904286Y-76037200D02*
X170856667Y-75989580D01*
X196824819Y-84356666D02*
X196348628Y-84689999D01*
X196824819Y-84928094D02*
X195824819Y-84928094D01*
X195824819Y-84928094D02*
X195824819Y-84547142D01*
X195824819Y-84547142D02*
X195872438Y-84451904D01*
X195872438Y-84451904D02*
X195920057Y-84404285D01*
X195920057Y-84404285D02*
X196015295Y-84356666D01*
X196015295Y-84356666D02*
X196158152Y-84356666D01*
X196158152Y-84356666D02*
X196253390Y-84404285D01*
X196253390Y-84404285D02*
X196301009Y-84451904D01*
X196301009Y-84451904D02*
X196348628Y-84547142D01*
X196348628Y-84547142D02*
X196348628Y-84928094D01*
X195920057Y-83975713D02*
X195872438Y-83928094D01*
X195872438Y-83928094D02*
X195824819Y-83832856D01*
X195824819Y-83832856D02*
X195824819Y-83594761D01*
X195824819Y-83594761D02*
X195872438Y-83499523D01*
X195872438Y-83499523D02*
X195920057Y-83451904D01*
X195920057Y-83451904D02*
X196015295Y-83404285D01*
X196015295Y-83404285D02*
X196110533Y-83404285D01*
X196110533Y-83404285D02*
X196253390Y-83451904D01*
X196253390Y-83451904D02*
X196824819Y-84023332D01*
X196824819Y-84023332D02*
X196824819Y-83404285D01*
X196824819Y-73356666D02*
X196348628Y-73689999D01*
X196824819Y-73928094D02*
X195824819Y-73928094D01*
X195824819Y-73928094D02*
X195824819Y-73547142D01*
X195824819Y-73547142D02*
X195872438Y-73451904D01*
X195872438Y-73451904D02*
X195920057Y-73404285D01*
X195920057Y-73404285D02*
X196015295Y-73356666D01*
X196015295Y-73356666D02*
X196158152Y-73356666D01*
X196158152Y-73356666D02*
X196253390Y-73404285D01*
X196253390Y-73404285D02*
X196301009Y-73451904D01*
X196301009Y-73451904D02*
X196348628Y-73547142D01*
X196348628Y-73547142D02*
X196348628Y-73928094D01*
X196824819Y-72404285D02*
X196824819Y-72975713D01*
X196824819Y-72689999D02*
X195824819Y-72689999D01*
X195824819Y-72689999D02*
X195967676Y-72785237D01*
X195967676Y-72785237D02*
X196062914Y-72880475D01*
X196062914Y-72880475D02*
X196110533Y-72975713D01*
X213515714Y-60494819D02*
X213515714Y-59494819D01*
X213515714Y-59494819D02*
X213753809Y-59494819D01*
X213753809Y-59494819D02*
X213896666Y-59542438D01*
X213896666Y-59542438D02*
X213991904Y-59637676D01*
X213991904Y-59637676D02*
X214039523Y-59732914D01*
X214039523Y-59732914D02*
X214087142Y-59923390D01*
X214087142Y-59923390D02*
X214087142Y-60066247D01*
X214087142Y-60066247D02*
X214039523Y-60256723D01*
X214039523Y-60256723D02*
X213991904Y-60351961D01*
X213991904Y-60351961D02*
X213896666Y-60447200D01*
X213896666Y-60447200D02*
X213753809Y-60494819D01*
X213753809Y-60494819D02*
X213515714Y-60494819D01*
X215039523Y-60494819D02*
X214468095Y-60494819D01*
X214753809Y-60494819D02*
X214753809Y-59494819D01*
X214753809Y-59494819D02*
X214658571Y-59637676D01*
X214658571Y-59637676D02*
X214563333Y-59732914D01*
X214563333Y-59732914D02*
X214468095Y-59780533D01*
X215420476Y-59590057D02*
X215468095Y-59542438D01*
X215468095Y-59542438D02*
X215563333Y-59494819D01*
X215563333Y-59494819D02*
X215801428Y-59494819D01*
X215801428Y-59494819D02*
X215896666Y-59542438D01*
X215896666Y-59542438D02*
X215944285Y-59590057D01*
X215944285Y-59590057D02*
X215991904Y-59685295D01*
X215991904Y-59685295D02*
X215991904Y-59780533D01*
X215991904Y-59780533D02*
X215944285Y-59923390D01*
X215944285Y-59923390D02*
X215372857Y-60494819D01*
X215372857Y-60494819D02*
X215991904Y-60494819D01*
X211515714Y-72994819D02*
X211515714Y-71994819D01*
X211515714Y-71994819D02*
X211753809Y-71994819D01*
X211753809Y-71994819D02*
X211896666Y-72042438D01*
X211896666Y-72042438D02*
X211991904Y-72137676D01*
X211991904Y-72137676D02*
X212039523Y-72232914D01*
X212039523Y-72232914D02*
X212087142Y-72423390D01*
X212087142Y-72423390D02*
X212087142Y-72566247D01*
X212087142Y-72566247D02*
X212039523Y-72756723D01*
X212039523Y-72756723D02*
X211991904Y-72851961D01*
X211991904Y-72851961D02*
X211896666Y-72947200D01*
X211896666Y-72947200D02*
X211753809Y-72994819D01*
X211753809Y-72994819D02*
X211515714Y-72994819D01*
X213039523Y-72994819D02*
X212468095Y-72994819D01*
X212753809Y-72994819D02*
X212753809Y-71994819D01*
X212753809Y-71994819D02*
X212658571Y-72137676D01*
X212658571Y-72137676D02*
X212563333Y-72232914D01*
X212563333Y-72232914D02*
X212468095Y-72280533D01*
X213991904Y-72994819D02*
X213420476Y-72994819D01*
X213706190Y-72994819D02*
X213706190Y-71994819D01*
X213706190Y-71994819D02*
X213610952Y-72137676D01*
X213610952Y-72137676D02*
X213515714Y-72232914D01*
X213515714Y-72232914D02*
X213420476Y-72280533D01*
X201515714Y-82994819D02*
X201515714Y-81994819D01*
X201515714Y-81994819D02*
X201753809Y-81994819D01*
X201753809Y-81994819D02*
X201896666Y-82042438D01*
X201896666Y-82042438D02*
X201991904Y-82137676D01*
X201991904Y-82137676D02*
X202039523Y-82232914D01*
X202039523Y-82232914D02*
X202087142Y-82423390D01*
X202087142Y-82423390D02*
X202087142Y-82566247D01*
X202087142Y-82566247D02*
X202039523Y-82756723D01*
X202039523Y-82756723D02*
X201991904Y-82851961D01*
X201991904Y-82851961D02*
X201896666Y-82947200D01*
X201896666Y-82947200D02*
X201753809Y-82994819D01*
X201753809Y-82994819D02*
X201515714Y-82994819D01*
X203039523Y-82994819D02*
X202468095Y-82994819D01*
X202753809Y-82994819D02*
X202753809Y-81994819D01*
X202753809Y-81994819D02*
X202658571Y-82137676D01*
X202658571Y-82137676D02*
X202563333Y-82232914D01*
X202563333Y-82232914D02*
X202468095Y-82280533D01*
X203658571Y-81994819D02*
X203753809Y-81994819D01*
X203753809Y-81994819D02*
X203849047Y-82042438D01*
X203849047Y-82042438D02*
X203896666Y-82090057D01*
X203896666Y-82090057D02*
X203944285Y-82185295D01*
X203944285Y-82185295D02*
X203991904Y-82375771D01*
X203991904Y-82375771D02*
X203991904Y-82613866D01*
X203991904Y-82613866D02*
X203944285Y-82804342D01*
X203944285Y-82804342D02*
X203896666Y-82899580D01*
X203896666Y-82899580D02*
X203849047Y-82947200D01*
X203849047Y-82947200D02*
X203753809Y-82994819D01*
X203753809Y-82994819D02*
X203658571Y-82994819D01*
X203658571Y-82994819D02*
X203563333Y-82947200D01*
X203563333Y-82947200D02*
X203515714Y-82899580D01*
X203515714Y-82899580D02*
X203468095Y-82804342D01*
X203468095Y-82804342D02*
X203420476Y-82613866D01*
X203420476Y-82613866D02*
X203420476Y-82375771D01*
X203420476Y-82375771D02*
X203468095Y-82185295D01*
X203468095Y-82185295D02*
X203515714Y-82090057D01*
X203515714Y-82090057D02*
X203563333Y-82042438D01*
X203563333Y-82042438D02*
X203658571Y-81994819D01*
X192491905Y-92494819D02*
X192491905Y-91494819D01*
X192491905Y-91494819D02*
X192730000Y-91494819D01*
X192730000Y-91494819D02*
X192872857Y-91542438D01*
X192872857Y-91542438D02*
X192968095Y-91637676D01*
X192968095Y-91637676D02*
X193015714Y-91732914D01*
X193015714Y-91732914D02*
X193063333Y-91923390D01*
X193063333Y-91923390D02*
X193063333Y-92066247D01*
X193063333Y-92066247D02*
X193015714Y-92256723D01*
X193015714Y-92256723D02*
X192968095Y-92351961D01*
X192968095Y-92351961D02*
X192872857Y-92447200D01*
X192872857Y-92447200D02*
X192730000Y-92494819D01*
X192730000Y-92494819D02*
X192491905Y-92494819D01*
X193539524Y-92494819D02*
X193730000Y-92494819D01*
X193730000Y-92494819D02*
X193825238Y-92447200D01*
X193825238Y-92447200D02*
X193872857Y-92399580D01*
X193872857Y-92399580D02*
X193968095Y-92256723D01*
X193968095Y-92256723D02*
X194015714Y-92066247D01*
X194015714Y-92066247D02*
X194015714Y-91685295D01*
X194015714Y-91685295D02*
X193968095Y-91590057D01*
X193968095Y-91590057D02*
X193920476Y-91542438D01*
X193920476Y-91542438D02*
X193825238Y-91494819D01*
X193825238Y-91494819D02*
X193634762Y-91494819D01*
X193634762Y-91494819D02*
X193539524Y-91542438D01*
X193539524Y-91542438D02*
X193491905Y-91590057D01*
X193491905Y-91590057D02*
X193444286Y-91685295D01*
X193444286Y-91685295D02*
X193444286Y-91923390D01*
X193444286Y-91923390D02*
X193491905Y-92018628D01*
X193491905Y-92018628D02*
X193539524Y-92066247D01*
X193539524Y-92066247D02*
X193634762Y-92113866D01*
X193634762Y-92113866D02*
X193825238Y-92113866D01*
X193825238Y-92113866D02*
X193920476Y-92066247D01*
X193920476Y-92066247D02*
X193968095Y-92018628D01*
X193968095Y-92018628D02*
X194015714Y-91923390D01*
X173491905Y-91994819D02*
X173491905Y-90994819D01*
X173491905Y-90994819D02*
X173730000Y-90994819D01*
X173730000Y-90994819D02*
X173872857Y-91042438D01*
X173872857Y-91042438D02*
X173968095Y-91137676D01*
X173968095Y-91137676D02*
X174015714Y-91232914D01*
X174015714Y-91232914D02*
X174063333Y-91423390D01*
X174063333Y-91423390D02*
X174063333Y-91566247D01*
X174063333Y-91566247D02*
X174015714Y-91756723D01*
X174015714Y-91756723D02*
X173968095Y-91851961D01*
X173968095Y-91851961D02*
X173872857Y-91947200D01*
X173872857Y-91947200D02*
X173730000Y-91994819D01*
X173730000Y-91994819D02*
X173491905Y-91994819D01*
X174396667Y-90994819D02*
X175063333Y-90994819D01*
X175063333Y-90994819D02*
X174634762Y-91994819D01*
X165991905Y-83494819D02*
X165991905Y-82494819D01*
X165991905Y-82494819D02*
X166230000Y-82494819D01*
X166230000Y-82494819D02*
X166372857Y-82542438D01*
X166372857Y-82542438D02*
X166468095Y-82637676D01*
X166468095Y-82637676D02*
X166515714Y-82732914D01*
X166515714Y-82732914D02*
X166563333Y-82923390D01*
X166563333Y-82923390D02*
X166563333Y-83066247D01*
X166563333Y-83066247D02*
X166515714Y-83256723D01*
X166515714Y-83256723D02*
X166468095Y-83351961D01*
X166468095Y-83351961D02*
X166372857Y-83447200D01*
X166372857Y-83447200D02*
X166230000Y-83494819D01*
X166230000Y-83494819D02*
X165991905Y-83494819D01*
X167420476Y-82494819D02*
X167230000Y-82494819D01*
X167230000Y-82494819D02*
X167134762Y-82542438D01*
X167134762Y-82542438D02*
X167087143Y-82590057D01*
X167087143Y-82590057D02*
X166991905Y-82732914D01*
X166991905Y-82732914D02*
X166944286Y-82923390D01*
X166944286Y-82923390D02*
X166944286Y-83304342D01*
X166944286Y-83304342D02*
X166991905Y-83399580D01*
X166991905Y-83399580D02*
X167039524Y-83447200D01*
X167039524Y-83447200D02*
X167134762Y-83494819D01*
X167134762Y-83494819D02*
X167325238Y-83494819D01*
X167325238Y-83494819D02*
X167420476Y-83447200D01*
X167420476Y-83447200D02*
X167468095Y-83399580D01*
X167468095Y-83399580D02*
X167515714Y-83304342D01*
X167515714Y-83304342D02*
X167515714Y-83066247D01*
X167515714Y-83066247D02*
X167468095Y-82971009D01*
X167468095Y-82971009D02*
X167420476Y-82923390D01*
X167420476Y-82923390D02*
X167325238Y-82875771D01*
X167325238Y-82875771D02*
X167134762Y-82875771D01*
X167134762Y-82875771D02*
X167039524Y-82923390D01*
X167039524Y-82923390D02*
X166991905Y-82971009D01*
X166991905Y-82971009D02*
X166944286Y-83066247D01*
X157491905Y-73994819D02*
X157491905Y-72994819D01*
X157491905Y-72994819D02*
X157730000Y-72994819D01*
X157730000Y-72994819D02*
X157872857Y-73042438D01*
X157872857Y-73042438D02*
X157968095Y-73137676D01*
X157968095Y-73137676D02*
X158015714Y-73232914D01*
X158015714Y-73232914D02*
X158063333Y-73423390D01*
X158063333Y-73423390D02*
X158063333Y-73566247D01*
X158063333Y-73566247D02*
X158015714Y-73756723D01*
X158015714Y-73756723D02*
X157968095Y-73851961D01*
X157968095Y-73851961D02*
X157872857Y-73947200D01*
X157872857Y-73947200D02*
X157730000Y-73994819D01*
X157730000Y-73994819D02*
X157491905Y-73994819D01*
X158968095Y-72994819D02*
X158491905Y-72994819D01*
X158491905Y-72994819D02*
X158444286Y-73471009D01*
X158444286Y-73471009D02*
X158491905Y-73423390D01*
X158491905Y-73423390D02*
X158587143Y-73375771D01*
X158587143Y-73375771D02*
X158825238Y-73375771D01*
X158825238Y-73375771D02*
X158920476Y-73423390D01*
X158920476Y-73423390D02*
X158968095Y-73471009D01*
X158968095Y-73471009D02*
X159015714Y-73566247D01*
X159015714Y-73566247D02*
X159015714Y-73804342D01*
X159015714Y-73804342D02*
X158968095Y-73899580D01*
X158968095Y-73899580D02*
X158920476Y-73947200D01*
X158920476Y-73947200D02*
X158825238Y-73994819D01*
X158825238Y-73994819D02*
X158587143Y-73994819D01*
X158587143Y-73994819D02*
X158491905Y-73947200D01*
X158491905Y-73947200D02*
X158444286Y-73899580D01*
X154756905Y-60994819D02*
X154756905Y-59994819D01*
X154756905Y-59994819D02*
X154995000Y-59994819D01*
X154995000Y-59994819D02*
X155137857Y-60042438D01*
X155137857Y-60042438D02*
X155233095Y-60137676D01*
X155233095Y-60137676D02*
X155280714Y-60232914D01*
X155280714Y-60232914D02*
X155328333Y-60423390D01*
X155328333Y-60423390D02*
X155328333Y-60566247D01*
X155328333Y-60566247D02*
X155280714Y-60756723D01*
X155280714Y-60756723D02*
X155233095Y-60851961D01*
X155233095Y-60851961D02*
X155137857Y-60947200D01*
X155137857Y-60947200D02*
X154995000Y-60994819D01*
X154995000Y-60994819D02*
X154756905Y-60994819D01*
X156185476Y-60328152D02*
X156185476Y-60994819D01*
X155947381Y-59947200D02*
X155709286Y-60661485D01*
X155709286Y-60661485D02*
X156328333Y-60661485D01*
X164491905Y-52494819D02*
X164491905Y-51494819D01*
X164491905Y-51494819D02*
X164730000Y-51494819D01*
X164730000Y-51494819D02*
X164872857Y-51542438D01*
X164872857Y-51542438D02*
X164968095Y-51637676D01*
X164968095Y-51637676D02*
X165015714Y-51732914D01*
X165015714Y-51732914D02*
X165063333Y-51923390D01*
X165063333Y-51923390D02*
X165063333Y-52066247D01*
X165063333Y-52066247D02*
X165015714Y-52256723D01*
X165015714Y-52256723D02*
X164968095Y-52351961D01*
X164968095Y-52351961D02*
X164872857Y-52447200D01*
X164872857Y-52447200D02*
X164730000Y-52494819D01*
X164730000Y-52494819D02*
X164491905Y-52494819D01*
X165396667Y-51494819D02*
X166015714Y-51494819D01*
X166015714Y-51494819D02*
X165682381Y-51875771D01*
X165682381Y-51875771D02*
X165825238Y-51875771D01*
X165825238Y-51875771D02*
X165920476Y-51923390D01*
X165920476Y-51923390D02*
X165968095Y-51971009D01*
X165968095Y-51971009D02*
X166015714Y-52066247D01*
X166015714Y-52066247D02*
X166015714Y-52304342D01*
X166015714Y-52304342D02*
X165968095Y-52399580D01*
X165968095Y-52399580D02*
X165920476Y-52447200D01*
X165920476Y-52447200D02*
X165825238Y-52494819D01*
X165825238Y-52494819D02*
X165539524Y-52494819D01*
X165539524Y-52494819D02*
X165444286Y-52447200D01*
X165444286Y-52447200D02*
X165396667Y-52399580D01*
X175491905Y-55494819D02*
X175491905Y-54494819D01*
X175491905Y-54494819D02*
X175730000Y-54494819D01*
X175730000Y-54494819D02*
X175872857Y-54542438D01*
X175872857Y-54542438D02*
X175968095Y-54637676D01*
X175968095Y-54637676D02*
X176015714Y-54732914D01*
X176015714Y-54732914D02*
X176063333Y-54923390D01*
X176063333Y-54923390D02*
X176063333Y-55066247D01*
X176063333Y-55066247D02*
X176015714Y-55256723D01*
X176015714Y-55256723D02*
X175968095Y-55351961D01*
X175968095Y-55351961D02*
X175872857Y-55447200D01*
X175872857Y-55447200D02*
X175730000Y-55494819D01*
X175730000Y-55494819D02*
X175491905Y-55494819D01*
X176444286Y-54590057D02*
X176491905Y-54542438D01*
X176491905Y-54542438D02*
X176587143Y-54494819D01*
X176587143Y-54494819D02*
X176825238Y-54494819D01*
X176825238Y-54494819D02*
X176920476Y-54542438D01*
X176920476Y-54542438D02*
X176968095Y-54590057D01*
X176968095Y-54590057D02*
X177015714Y-54685295D01*
X177015714Y-54685295D02*
X177015714Y-54780533D01*
X177015714Y-54780533D02*
X176968095Y-54923390D01*
X176968095Y-54923390D02*
X176396667Y-55494819D01*
X176396667Y-55494819D02*
X177015714Y-55494819D01*
X184491905Y-63994819D02*
X184491905Y-62994819D01*
X184491905Y-62994819D02*
X184730000Y-62994819D01*
X184730000Y-62994819D02*
X184872857Y-63042438D01*
X184872857Y-63042438D02*
X184968095Y-63137676D01*
X184968095Y-63137676D02*
X185015714Y-63232914D01*
X185015714Y-63232914D02*
X185063333Y-63423390D01*
X185063333Y-63423390D02*
X185063333Y-63566247D01*
X185063333Y-63566247D02*
X185015714Y-63756723D01*
X185015714Y-63756723D02*
X184968095Y-63851961D01*
X184968095Y-63851961D02*
X184872857Y-63947200D01*
X184872857Y-63947200D02*
X184730000Y-63994819D01*
X184730000Y-63994819D02*
X184491905Y-63994819D01*
X186015714Y-63994819D02*
X185444286Y-63994819D01*
X185730000Y-63994819D02*
X185730000Y-62994819D01*
X185730000Y-62994819D02*
X185634762Y-63137676D01*
X185634762Y-63137676D02*
X185539524Y-63232914D01*
X185539524Y-63232914D02*
X185444286Y-63280533D01*
X182991905Y-100994819D02*
X182991905Y-99994819D01*
X182991905Y-99994819D02*
X183230000Y-99994819D01*
X183230000Y-99994819D02*
X183372857Y-100042438D01*
X183372857Y-100042438D02*
X183468095Y-100137676D01*
X183468095Y-100137676D02*
X183515714Y-100232914D01*
X183515714Y-100232914D02*
X183563333Y-100423390D01*
X183563333Y-100423390D02*
X183563333Y-100566247D01*
X183563333Y-100566247D02*
X183515714Y-100756723D01*
X183515714Y-100756723D02*
X183468095Y-100851961D01*
X183468095Y-100851961D02*
X183372857Y-100947200D01*
X183372857Y-100947200D02*
X183230000Y-100994819D01*
X183230000Y-100994819D02*
X182991905Y-100994819D01*
X184134762Y-100423390D02*
X184039524Y-100375771D01*
X184039524Y-100375771D02*
X183991905Y-100328152D01*
X183991905Y-100328152D02*
X183944286Y-100232914D01*
X183944286Y-100232914D02*
X183944286Y-100185295D01*
X183944286Y-100185295D02*
X183991905Y-100090057D01*
X183991905Y-100090057D02*
X184039524Y-100042438D01*
X184039524Y-100042438D02*
X184134762Y-99994819D01*
X184134762Y-99994819D02*
X184325238Y-99994819D01*
X184325238Y-99994819D02*
X184420476Y-100042438D01*
X184420476Y-100042438D02*
X184468095Y-100090057D01*
X184468095Y-100090057D02*
X184515714Y-100185295D01*
X184515714Y-100185295D02*
X184515714Y-100232914D01*
X184515714Y-100232914D02*
X184468095Y-100328152D01*
X184468095Y-100328152D02*
X184420476Y-100375771D01*
X184420476Y-100375771D02*
X184325238Y-100423390D01*
X184325238Y-100423390D02*
X184134762Y-100423390D01*
X184134762Y-100423390D02*
X184039524Y-100471009D01*
X184039524Y-100471009D02*
X183991905Y-100518628D01*
X183991905Y-100518628D02*
X183944286Y-100613866D01*
X183944286Y-100613866D02*
X183944286Y-100804342D01*
X183944286Y-100804342D02*
X183991905Y-100899580D01*
X183991905Y-100899580D02*
X184039524Y-100947200D01*
X184039524Y-100947200D02*
X184134762Y-100994819D01*
X184134762Y-100994819D02*
X184325238Y-100994819D01*
X184325238Y-100994819D02*
X184420476Y-100947200D01*
X184420476Y-100947200D02*
X184468095Y-100899580D01*
X184468095Y-100899580D02*
X184515714Y-100804342D01*
X184515714Y-100804342D02*
X184515714Y-100613866D01*
X184515714Y-100613866D02*
X184468095Y-100518628D01*
X184468095Y-100518628D02*
X184420476Y-100471009D01*
X184420476Y-100471009D02*
X184325238Y-100423390D01*
D11*
%TO.C,D13*%
X202670000Y-54955000D02*
X202670000Y-58045000D01*
X202670000Y-54955170D02*
G75*
G02*
X208220000Y-56500000I2560000J-1544830D01*
G01*
X208220000Y-56500000D02*
G75*
G02*
X202670000Y-58044830I-2990000J0D01*
G01*
X207730000Y-56500000D02*
G75*
G02*
X202730000Y-56500000I-2500000J0D01*
G01*
X202730000Y-56500000D02*
G75*
G02*
X207730000Y-56500000I2500000J0D01*
G01*
%TO.C,BT1*%
X175620000Y-82580000D02*
X177000000Y-82580000D01*
X175620000Y-83960000D02*
X175620000Y-82580000D01*
X175620000Y-85230000D02*
X175620000Y-87880000D01*
X175620000Y-85230000D02*
X178380000Y-85230000D01*
X175620000Y-87880000D02*
X178380000Y-87880000D01*
X178380000Y-85230000D02*
X178380000Y-87880000D01*
%TO.C,C1*%
X170695225Y-68525000D02*
X171195225Y-68525000D01*
X170945225Y-68275000D02*
X170945225Y-68775000D01*
X173500000Y-67420000D02*
X173500000Y-68960000D01*
X173500000Y-71040000D02*
X173500000Y-72580000D01*
X173540000Y-67420000D02*
X173540000Y-68960000D01*
X173540000Y-71040000D02*
X173540000Y-72580000D01*
X173580000Y-67421000D02*
X173580000Y-68960000D01*
X173580000Y-71040000D02*
X173580000Y-72579000D01*
X173620000Y-67423000D02*
X173620000Y-68960000D01*
X173620000Y-71040000D02*
X173620000Y-72577000D01*
X173660000Y-67425000D02*
X173660000Y-68960000D01*
X173660000Y-71040000D02*
X173660000Y-72575000D01*
X173700000Y-67428000D02*
X173700000Y-68960000D01*
X173700000Y-71040000D02*
X173700000Y-72572000D01*
X173740000Y-67431000D02*
X173740000Y-68960000D01*
X173740000Y-71040000D02*
X173740000Y-72569000D01*
X173780000Y-67435000D02*
X173780000Y-68960000D01*
X173780000Y-71040000D02*
X173780000Y-72565000D01*
X173820000Y-67440000D02*
X173820000Y-68960000D01*
X173820000Y-71040000D02*
X173820000Y-72560000D01*
X173860000Y-67445000D02*
X173860000Y-68960000D01*
X173860000Y-71040000D02*
X173860000Y-72555000D01*
X173900000Y-67451000D02*
X173900000Y-68960000D01*
X173900000Y-71040000D02*
X173900000Y-72549000D01*
X173940000Y-67457000D02*
X173940000Y-68960000D01*
X173940000Y-71040000D02*
X173940000Y-72543000D01*
X173980000Y-67464000D02*
X173980000Y-68960000D01*
X173980000Y-71040000D02*
X173980000Y-72536000D01*
X174020000Y-67472000D02*
X174020000Y-68960000D01*
X174020000Y-71040000D02*
X174020000Y-72528000D01*
X174060000Y-67481000D02*
X174060000Y-68960000D01*
X174060000Y-71040000D02*
X174060000Y-72519000D01*
X174100000Y-67490000D02*
X174100000Y-68960000D01*
X174100000Y-71040000D02*
X174100000Y-72510000D01*
X174140000Y-67499000D02*
X174140000Y-68960000D01*
X174140000Y-71040000D02*
X174140000Y-72501000D01*
X174180000Y-67510000D02*
X174180000Y-68960000D01*
X174180000Y-71040000D02*
X174180000Y-72490000D01*
X174220000Y-67521000D02*
X174220000Y-68960000D01*
X174220000Y-71040000D02*
X174220000Y-72479000D01*
X174260000Y-67533000D02*
X174260000Y-68960000D01*
X174260000Y-71040000D02*
X174260000Y-72467000D01*
X174300000Y-67545000D02*
X174300000Y-68960000D01*
X174300000Y-71040000D02*
X174300000Y-72455000D01*
X174340000Y-67558000D02*
X174340000Y-68960000D01*
X174340000Y-71040000D02*
X174340000Y-72442000D01*
X174380000Y-67572000D02*
X174380000Y-68960000D01*
X174380000Y-71040000D02*
X174380000Y-72428000D01*
X174420000Y-67587000D02*
X174420000Y-68960000D01*
X174420000Y-71040000D02*
X174420000Y-72413000D01*
X174460000Y-67602000D02*
X174460000Y-68960000D01*
X174460000Y-71040000D02*
X174460000Y-72398000D01*
X174500000Y-67618000D02*
X174500000Y-68960000D01*
X174500000Y-71040000D02*
X174500000Y-72382000D01*
X174540000Y-67635000D02*
X174540000Y-68960000D01*
X174540000Y-71040000D02*
X174540000Y-72365000D01*
X174580000Y-67653000D02*
X174580000Y-68960000D01*
X174580000Y-71040000D02*
X174580000Y-72347000D01*
X174620000Y-67671000D02*
X174620000Y-68960000D01*
X174620000Y-71040000D02*
X174620000Y-72329000D01*
X174660000Y-67691000D02*
X174660000Y-68960000D01*
X174660000Y-71040000D02*
X174660000Y-72309000D01*
X174700000Y-67711000D02*
X174700000Y-68960000D01*
X174700000Y-71040000D02*
X174700000Y-72289000D01*
X174740000Y-67732000D02*
X174740000Y-68960000D01*
X174740000Y-71040000D02*
X174740000Y-72268000D01*
X174780000Y-67754000D02*
X174780000Y-68960000D01*
X174780000Y-71040000D02*
X174780000Y-72246000D01*
X174820000Y-67777000D02*
X174820000Y-68960000D01*
X174820000Y-71040000D02*
X174820000Y-72223000D01*
X174860000Y-67801000D02*
X174860000Y-68960000D01*
X174860000Y-71040000D02*
X174860000Y-72199000D01*
X174900000Y-67825000D02*
X174900000Y-68960000D01*
X174900000Y-71040000D02*
X174900000Y-72175000D01*
X174940000Y-67851000D02*
X174940000Y-68960000D01*
X174940000Y-71040000D02*
X174940000Y-72149000D01*
X174980000Y-67878000D02*
X174980000Y-68960000D01*
X174980000Y-71040000D02*
X174980000Y-72122000D01*
X175020000Y-67906000D02*
X175020000Y-68960000D01*
X175020000Y-71040000D02*
X175020000Y-72094000D01*
X175060000Y-67935000D02*
X175060000Y-68960000D01*
X175060000Y-71040000D02*
X175060000Y-72065000D01*
X175100000Y-67965000D02*
X175100000Y-68960000D01*
X175100000Y-71040000D02*
X175100000Y-72035000D01*
X175140000Y-67997000D02*
X175140000Y-68960000D01*
X175140000Y-71040000D02*
X175140000Y-72003000D01*
X175180000Y-68030000D02*
X175180000Y-68960000D01*
X175180000Y-71040000D02*
X175180000Y-71970000D01*
X175220000Y-68064000D02*
X175220000Y-68960000D01*
X175220000Y-71040000D02*
X175220000Y-71936000D01*
X175260000Y-68099000D02*
X175260000Y-68960000D01*
X175260000Y-71040000D02*
X175260000Y-71901000D01*
X175300000Y-68136000D02*
X175300000Y-68960000D01*
X175300000Y-71040000D02*
X175300000Y-71864000D01*
X175340000Y-68175000D02*
X175340000Y-68960000D01*
X175340000Y-71040000D02*
X175340000Y-71825000D01*
X175380000Y-68215000D02*
X175380000Y-68960000D01*
X175380000Y-71040000D02*
X175380000Y-71785000D01*
X175420000Y-68257000D02*
X175420000Y-68960000D01*
X175420000Y-71040000D02*
X175420000Y-71743000D01*
X175460000Y-68301000D02*
X175460000Y-68960000D01*
X175460000Y-71040000D02*
X175460000Y-71699000D01*
X175500000Y-68348000D02*
X175500000Y-68960000D01*
X175500000Y-71040000D02*
X175500000Y-71652000D01*
X175540000Y-68396000D02*
X175540000Y-71604000D01*
X175580000Y-68447000D02*
X175580000Y-71553000D01*
X175620000Y-68501000D02*
X175620000Y-71499000D01*
X175660000Y-68557000D02*
X175660000Y-71443000D01*
X175700000Y-68617000D02*
X175700000Y-71383000D01*
X175740000Y-68681000D02*
X175740000Y-71319000D01*
X175780000Y-68749000D02*
X175780000Y-71251000D01*
X175820000Y-68823000D02*
X175820000Y-71177000D01*
X175860000Y-68902000D02*
X175860000Y-71098000D01*
X175900000Y-68989000D02*
X175900000Y-71011000D01*
X175940000Y-69086000D02*
X175940000Y-70914000D01*
X175980000Y-69195000D02*
X175980000Y-70805000D01*
X176020000Y-69323000D02*
X176020000Y-70677000D01*
X176060000Y-69483000D02*
X176060000Y-70517000D01*
X176100000Y-69717000D02*
X176100000Y-70283000D01*
X176120000Y-70000000D02*
G75*
G02*
X170880000Y-70000000I-2620000J0D01*
G01*
X170880000Y-70000000D02*
G75*
G02*
X176120000Y-70000000I2620000J0D01*
G01*
%TO.C,D14*%
X196730000Y-61000000D02*
G75*
G02*
X191730000Y-61000000I-2500000J0D01*
G01*
X191730000Y-61000000D02*
G75*
G02*
X196730000Y-61000000I2500000J0D01*
G01*
X197220000Y-61000000D02*
G75*
G02*
X191670000Y-62544830I-2990000J0D01*
G01*
X191670000Y-59455170D02*
G75*
G02*
X197220000Y-61000000I2560000J-1544830D01*
G01*
X191670000Y-59455000D02*
X191670000Y-62545000D01*
%TO.C,U1*%
X183040000Y-77050000D02*
X183040000Y-87330000D01*
X183040000Y-87330000D02*
X188340000Y-87330000D01*
X184690000Y-77050000D02*
X183040000Y-77050000D01*
X188340000Y-77050000D02*
X186690000Y-77050000D01*
X188340000Y-87330000D02*
X188340000Y-77050000D01*
X186690000Y-77050000D02*
G75*
G02*
X184690000Y-77050000I-1000000J0D01*
G01*
%TO.C,R3*%
X167420000Y-76630000D02*
X173960000Y-76630000D01*
X167420000Y-76960000D02*
X167420000Y-76630000D01*
X167420000Y-79040000D02*
X167420000Y-79370000D01*
X167420000Y-79370000D02*
X173960000Y-79370000D01*
X173960000Y-76630000D02*
X173960000Y-76960000D01*
X173960000Y-79370000D02*
X173960000Y-79040000D01*
%TO.C,R2*%
X195370000Y-80920000D02*
X195370000Y-87460000D01*
X195040000Y-80920000D02*
X195370000Y-80920000D01*
X192960000Y-80920000D02*
X192630000Y-80920000D01*
X192630000Y-80920000D02*
X192630000Y-87460000D01*
X195370000Y-87460000D02*
X195040000Y-87460000D01*
X192630000Y-87460000D02*
X192960000Y-87460000D01*
%TO.C,R1*%
X195370000Y-69920000D02*
X195370000Y-76460000D01*
X195040000Y-69920000D02*
X195370000Y-69920000D01*
X192960000Y-69920000D02*
X192630000Y-69920000D01*
X192630000Y-69920000D02*
X192630000Y-76460000D01*
X195370000Y-76460000D02*
X195040000Y-76460000D01*
X192630000Y-76460000D02*
X192960000Y-76460000D01*
%TO.C,D12*%
X212170000Y-62455000D02*
X212170000Y-65545000D01*
X212170000Y-62455170D02*
G75*
G02*
X217720000Y-64000000I2560000J-1544830D01*
G01*
X217720000Y-64000000D02*
G75*
G02*
X212170000Y-65544830I-2990000J0D01*
G01*
X217230000Y-64000000D02*
G75*
G02*
X212230000Y-64000000I-2500000J0D01*
G01*
X212230000Y-64000000D02*
G75*
G02*
X217230000Y-64000000I2500000J0D01*
G01*
%TO.C,D11*%
X210170000Y-74955000D02*
X210170000Y-78045000D01*
X210170000Y-74955170D02*
G75*
G02*
X215720000Y-76500000I2560000J-1544830D01*
G01*
X215720000Y-76500000D02*
G75*
G02*
X210170000Y-78044830I-2990000J0D01*
G01*
X215230000Y-76500000D02*
G75*
G02*
X210230000Y-76500000I-2500000J0D01*
G01*
X210230000Y-76500000D02*
G75*
G02*
X215230000Y-76500000I2500000J0D01*
G01*
%TO.C,D10*%
X200170000Y-84955000D02*
X200170000Y-88045000D01*
X200170000Y-84955170D02*
G75*
G02*
X205720000Y-86500000I2560000J-1544830D01*
G01*
X205720000Y-86500000D02*
G75*
G02*
X200170000Y-88044830I-2990000J0D01*
G01*
X205230000Y-86500000D02*
G75*
G02*
X200230000Y-86500000I-2500000J0D01*
G01*
X200230000Y-86500000D02*
G75*
G02*
X205230000Y-86500000I2500000J0D01*
G01*
%TO.C,D9*%
X190670000Y-94455000D02*
X190670000Y-97545000D01*
X190670000Y-94455170D02*
G75*
G02*
X196220000Y-96000000I2560000J-1544830D01*
G01*
X196220000Y-96000000D02*
G75*
G02*
X190670000Y-97544830I-2990000J0D01*
G01*
X195730000Y-96000000D02*
G75*
G02*
X190730000Y-96000000I-2500000J0D01*
G01*
X190730000Y-96000000D02*
G75*
G02*
X195730000Y-96000000I2500000J0D01*
G01*
%TO.C,D7*%
X171670000Y-93955000D02*
X171670000Y-97045000D01*
X171670000Y-93955170D02*
G75*
G02*
X177220000Y-95500000I2560000J-1544830D01*
G01*
X177220000Y-95500000D02*
G75*
G02*
X171670000Y-97044830I-2990000J0D01*
G01*
X176730000Y-95500000D02*
G75*
G02*
X171730000Y-95500000I-2500000J0D01*
G01*
X171730000Y-95500000D02*
G75*
G02*
X176730000Y-95500000I2500000J0D01*
G01*
%TO.C,D6*%
X164170000Y-85455000D02*
X164170000Y-88545000D01*
X164170000Y-85455170D02*
G75*
G02*
X169720000Y-87000000I2560000J-1544830D01*
G01*
X169720000Y-87000000D02*
G75*
G02*
X164170000Y-88544830I-2990000J0D01*
G01*
X169230000Y-87000000D02*
G75*
G02*
X164230000Y-87000000I-2500000J0D01*
G01*
X164230000Y-87000000D02*
G75*
G02*
X169230000Y-87000000I2500000J0D01*
G01*
%TO.C,D5*%
X155670000Y-75955000D02*
X155670000Y-79045000D01*
X155670000Y-75955170D02*
G75*
G02*
X161220000Y-77500000I2560000J-1544830D01*
G01*
X161220000Y-77500000D02*
G75*
G02*
X155670000Y-79044830I-2990000J0D01*
G01*
X160730000Y-77500000D02*
G75*
G02*
X155730000Y-77500000I-2500000J0D01*
G01*
X155730000Y-77500000D02*
G75*
G02*
X160730000Y-77500000I2500000J0D01*
G01*
%TO.C,D4*%
X152935000Y-62955000D02*
X152935000Y-66045000D01*
X152935000Y-62955170D02*
G75*
G02*
X158485000Y-64500000I2560000J-1544830D01*
G01*
X158485000Y-64500000D02*
G75*
G02*
X152935000Y-66044830I-2990000J0D01*
G01*
X157995000Y-64500000D02*
G75*
G02*
X152995000Y-64500000I-2500000J0D01*
G01*
X152995000Y-64500000D02*
G75*
G02*
X157995000Y-64500000I2500000J0D01*
G01*
%TO.C,D3*%
X162670000Y-54455000D02*
X162670000Y-57545000D01*
X162670000Y-54455170D02*
G75*
G02*
X168220000Y-56000000I2560000J-1544830D01*
G01*
X168220000Y-56000000D02*
G75*
G02*
X162670000Y-57544830I-2990000J0D01*
G01*
X167730000Y-56000000D02*
G75*
G02*
X162730000Y-56000000I-2500000J0D01*
G01*
X162730000Y-56000000D02*
G75*
G02*
X167730000Y-56000000I2500000J0D01*
G01*
%TO.C,D2*%
X173670000Y-57455000D02*
X173670000Y-60545000D01*
X173670000Y-57455170D02*
G75*
G02*
X179220000Y-59000000I2560000J-1544830D01*
G01*
X179220000Y-59000000D02*
G75*
G02*
X173670000Y-60544830I-2990000J0D01*
G01*
X178730000Y-59000000D02*
G75*
G02*
X173730000Y-59000000I-2500000J0D01*
G01*
X173730000Y-59000000D02*
G75*
G02*
X178730000Y-59000000I2500000J0D01*
G01*
%TO.C,D1*%
X187730000Y-67500000D02*
G75*
G02*
X182730000Y-67500000I-2500000J0D01*
G01*
X182730000Y-67500000D02*
G75*
G02*
X187730000Y-67500000I2500000J0D01*
G01*
X188220000Y-67500000D02*
G75*
G02*
X182670000Y-69044830I-2990000J0D01*
G01*
X182670000Y-65955170D02*
G75*
G02*
X188220000Y-67500000I2560000J-1544830D01*
G01*
X182670000Y-65955000D02*
X182670000Y-69045000D01*
%TO.C,D8*%
X181170000Y-102955000D02*
X181170000Y-106045000D01*
X181170000Y-102955170D02*
G75*
G02*
X186720000Y-104500000I2560000J-1544830D01*
G01*
X186720000Y-104500000D02*
G75*
G02*
X181170000Y-106044830I-2990000J0D01*
G01*
X186230000Y-104500000D02*
G75*
G02*
X181230000Y-104500000I-2500000J0D01*
G01*
X181230000Y-104500000D02*
G75*
G02*
X186230000Y-104500000I2500000J0D01*
G01*
%TD*%
M02*
