M48
; DRILL file {KiCad 9.0.7} date 2026-02-20T23:46:09+0530
; FORMAT={-:-/ absolute / metric / decimal}
; #@! TF.CreationDate,2026-02-20T23:46:09+05:30
; #@! TF.GenerationSoftware,Kicad,Pcbnew,9.0.7
; #@! TF.FileFunction,Plated,1,2,PTH
FMAT,2
METRIC
; #@! TA.AperFunction,Plated,PTH,ComponentDrill
T1C0.800
; #@! TA.AperFunction,Plated,PTH,ComponentDrill
T2C0.900
; #@! TA.AperFunction,Plated,PTH,ComponentDrill
T3C1.000
%
G90
G05
T1
X166.88Y-78.0
X172.5Y-70.0
X174.5Y-70.0
X174.5Y-78.0
X181.88Y-78.38
X181.88Y-80.92
X181.88Y-83.46
X181.88Y-86.0
X189.5Y-78.38
X189.5Y-80.92
X189.5Y-83.46
X189.5Y-86.0
X194.0Y-69.38
X194.0Y-77.0
X194.0Y-80.38
X194.0Y-88.0
T2
X154.225Y-64.5
X156.765Y-64.5
X156.96Y-77.5
X159.5Y-77.5
X163.96Y-56.0
X165.46Y-87.0
X166.5Y-56.0
X168.0Y-87.0
X172.96Y-95.5
X174.96Y-59.0
X175.5Y-95.5
X177.5Y-59.0
X182.46Y-104.5
X183.96Y-67.5
X185.0Y-104.5
X186.5Y-67.5
X191.96Y-96.0
X192.96Y-61.0
X194.5Y-96.0
X195.5Y-61.0
X201.46Y-86.5
X203.96Y-56.5
X204.0Y-86.5
X206.5Y-56.5
X211.46Y-76.5
X213.46Y-64.0
X214.0Y-76.5
X216.0Y-64.0
T3
X177.0Y-83.96
X177.0Y-86.5
M30
