%TF.GenerationSoftware,KiCad,Pcbnew,9.0.7*%
%TF.CreationDate,2026-02-20T23:46:02+05:30*%
%TF.ProjectId,heart-board,68656172-742d-4626-9f61-72642e6b6963,rev?*%
%TF.SameCoordinates,Original*%
%TF.FileFunction,Soldermask,Bot*%
%TF.FilePolarity,Negative*%
%FSLAX46Y46*%
G04 Gerber Fmt 4.6, Leading zero omitted, Abs format (unit mm)*
G04 Created by KiCad (PCBNEW 9.0.7) date 2026-02-20 23:46:02*
%MOMM*%
%LPD*%
G01*
G04 APERTURE LIST*
G04 Aperture macros list*
%AMRoundRect*
0 Rectangle with rounded corners*
0 $1 Rounding radius*
0 $2 $3 $4 $5 $6 $7 $8 $9 X,Y pos of 4 corners*
0 Add a 4 corners polygon primitive as box body*
4,1,4,$2,$3,$4,$5,$6,$7,$8,$9,$2,$3,0*
0 Add four circle primitives for the rounded corners*
1,1,$1+$1,$2,$3*
1,1,$1+$1,$4,$5*
1,1,$1+$1,$6,$7*
1,1,$1+$1,$8,$9*
0 Add four rect primitives between the rounded corners*
20,1,$1+$1,$2,$3,$4,$5,0*
20,1,$1+$1,$4,$5,$6,$7,0*
20,1,$1+$1,$6,$7,$8,$9,0*
20,1,$1+$1,$8,$9,$2,$3,0*%
G04 Aperture macros list end*
%ADD10R,1.800000X1.800000*%
%ADD11C,1.800000*%
%ADD12R,1.700000X1.700000*%
%ADD13C,1.700000*%
%ADD14RoundRect,0.250000X-0.550000X-0.550000X0.550000X-0.550000X0.550000X0.550000X-0.550000X0.550000X0*%
%ADD15C,1.600000*%
G04 APERTURE END LIST*
D10*
%TO.C,D13*%
X203960000Y-56500000D03*
D11*
X206500000Y-56500000D03*
%TD*%
D12*
%TO.C,BT1*%
X177000000Y-83960000D03*
D13*
X177000000Y-86500000D03*
%TD*%
D14*
%TO.C,C1*%
X172500000Y-70000000D03*
D15*
X174500000Y-70000000D03*
%TD*%
D11*
%TO.C,D14*%
X195500000Y-61000000D03*
D10*
X192960000Y-61000000D03*
%TD*%
D14*
%TO.C,U1*%
X181880000Y-78380000D03*
D15*
X181880000Y-80920000D03*
X181880000Y-83460000D03*
X181880000Y-86000000D03*
X189500000Y-86000000D03*
X189500000Y-83460000D03*
X189500000Y-80920000D03*
X189500000Y-78380000D03*
%TD*%
%TO.C,R3*%
X166880000Y-78000000D03*
X174500000Y-78000000D03*
%TD*%
%TO.C,R2*%
X194000000Y-80380000D03*
X194000000Y-88000000D03*
%TD*%
%TO.C,R1*%
X194000000Y-69380000D03*
X194000000Y-77000000D03*
%TD*%
D10*
%TO.C,D12*%
X213460000Y-64000000D03*
D11*
X216000000Y-64000000D03*
%TD*%
D10*
%TO.C,D11*%
X211460000Y-76500000D03*
D11*
X214000000Y-76500000D03*
%TD*%
D10*
%TO.C,D10*%
X201460000Y-86500000D03*
D11*
X204000000Y-86500000D03*
%TD*%
D10*
%TO.C,D9*%
X191960000Y-96000000D03*
D11*
X194500000Y-96000000D03*
%TD*%
D10*
%TO.C,D7*%
X172960000Y-95500000D03*
D11*
X175500000Y-95500000D03*
%TD*%
D10*
%TO.C,D6*%
X165460000Y-87000000D03*
D11*
X168000000Y-87000000D03*
%TD*%
D10*
%TO.C,D5*%
X156960000Y-77500000D03*
D11*
X159500000Y-77500000D03*
%TD*%
D10*
%TO.C,D4*%
X154225000Y-64500000D03*
D11*
X156765000Y-64500000D03*
%TD*%
D10*
%TO.C,D3*%
X163960000Y-56000000D03*
D11*
X166500000Y-56000000D03*
%TD*%
D10*
%TO.C,D2*%
X174960000Y-59000000D03*
D11*
X177500000Y-59000000D03*
%TD*%
%TO.C,D1*%
X186500000Y-67500000D03*
D10*
X183960000Y-67500000D03*
%TD*%
%TO.C,D8*%
X182460000Y-104500000D03*
D11*
X185000000Y-104500000D03*
%TD*%
M02*
